<svg width="72" height="50" viewBox="0 0 72 50" fill="none" xmlns="http://www.w3.org/2000/svg">
<path fill-rule="evenodd" clip-rule="evenodd" d="M25 50C28.9471 50 32.6806 49.0853 36 47.4562C39.3194 49.0853 43.0529 50 47 50C60.8071 50 72 38.8071 72 25C72 11.1929 60.8071 0 47 0C43.0529 0 39.3194 0.914739 36 2.54379C32.6806 0.914739 28.9471 0 25 0C11.1929 0 0 11.1929 0 25C0 38.8071 11.1929 50 25 50ZM25 45C27.0502 45 29.0284 44.6915 30.8906 44.1184C25.9309 39.935 22.6216 33.8568 22.0788 27H34V32H28.2592C29.7533 35.9983 32.4902 39.3903 36 41.706C39.5098 39.3903 42.2467 35.9983 43.7408 32H38V27H49.9211C49.3784 33.8568 46.0692 39.935 41.1094 44.1184C42.9717 44.6915 44.9498 45 47 45C58.0457 45 67 36.0457 67 25C67 13.9543 58.0457 5 47 5C44.9498 5 42.9717 5.30849 41.1094 5.88158C45.0802 9.23081 47.993 13.7945 49.2753 19H44.0844C42.6923 14.5678 39.7988 10.8004 36 8.29404C32.2012 10.8004 29.3077 14.5678 27.9156 19H22.7246C24.0069 13.7945 26.9198 9.23081 30.8906 5.88158C29.0284 5.30849 27.0502 5 25 5C13.9543 5 5 13.9543 5 25C5 36.0457 13.9543 45 25 45Z" fill="#FF0000"/>
</svg>
