<svg width="40" height="40" viewBox="0 0 40 40" fill="none" xmlns="http://www.w3.org/2000/svg">
<path d="M14.2724 29.6C12.5725 29.6 11.1816 31.04 11.1816 32.8C11.1816 34.56 12.5725 36 14.2724 36C15.9724 36 17.3632 34.56 17.3632 32.8C17.3632 31.04 15.9724 29.6 14.2724 29.6ZM5 4V7.2H8.0908L13.6542 19.36L11.4907 23.2C11.3361 23.68 11.1816 24.32 11.1816 24.8C11.1816 26.56 12.5725 28 14.2724 28H32.8172V24.8H14.8906C14.736 24.8 14.5815 24.64 14.5815 24.48V24.3199L15.9724 21.5999H27.4083C28.6446 21.5999 29.5719 20.9599 30.0355 19.9999L35.599 9.6C35.908 9.28 35.908 9.12 35.908 8.8C35.908 7.84 35.2899 7.2 34.3626 7.2H11.4907L10.0998 4H5ZM29.7264 29.6C28.0265 29.6 26.6356 31.04 26.6356 32.8C26.6356 34.56 28.0265 36 29.7264 36C31.4264 36 32.8172 34.56 32.8172 32.8C32.8172 31.04 31.4264 29.6 29.7264 29.6Z" fill="#78909C"/>
</svg>
