<svg width="40" height="40" viewBox="0 0 40 40" fill="none" xmlns="http://www.w3.org/2000/svg">
<path d="M19.7543 19.6501C23.1908 19.6501 25.9768 16.1467 25.9768 11.8251C25.9768 7.50336 25.0621 4 19.7543 4C14.4465 4 13.5317 7.50336 13.5317 11.8251C13.5317 16.1467 16.3177 19.6501 19.7543 19.6501Z" fill="#78909C"/>
<path d="M8.00122 31.598C7.9991 31.5237 8.00016 31.3345 8.00122 31.598V31.598Z" fill="#78909C"/>
<path d="M31.5069 31.8038C31.508 31.3033 31.5102 31.7317 31.5069 31.8038V31.8038Z" fill="#78909C"/>
<path d="M31.4936 31.282C31.3784 23.7536 30.4287 21.6084 23.1615 20.2505C23.1615 20.2505 22.1386 21.6001 19.7542 21.6001C17.3699 21.6001 16.3468 20.2505 16.3468 20.2505C9.15887 21.5936 8.15144 23.707 8.01898 31.0374C8.00812 31.636 8.00317 31.6675 8.00122 31.598C8.00167 31.7282 8.00211 31.969 8.00211 32.3889C8.00211 32.3889 9.73225 36 19.7542 36C29.776 36 31.5063 32.3889 31.5063 32.3889C31.5063 32.1191 31.5066 31.9314 31.5069 31.8038C31.5049 31.8468 31.501 31.7636 31.4936 31.282Z" fill="#78909C"/>
</svg>
