<svg width="40" height="40" viewBox="0 0 40 40" fill="none" xmlns="http://www.w3.org/2000/svg">
<path d="M15.8857 4C19.038 4 22.0612 5.25224 24.2902 7.48124C26.5192 9.71025 27.7714 12.7334 27.7714 15.8857C27.7714 18.8297 26.6926 21.536 24.9189 23.6206L25.4126 24.1143H26.8571L36 33.2571L33.2571 36L24.1143 26.8571V25.4126L23.6206 24.9189C21.536 26.6926 18.8297 27.7714 15.8857 27.7714C12.7334 27.7714 9.71025 26.5192 7.48124 24.2902C5.25224 22.0612 4 19.038 4 15.8857C4 12.7334 5.25224 9.71025 7.48124 7.48124C9.71025 5.25224 12.7334 4 15.8857 4ZM15.8857 7.65714C11.3143 7.65714 7.65714 11.3143 7.65714 15.8857C7.65714 20.4571 11.3143 24.1143 15.8857 24.1143C20.4571 24.1143 24.1143 20.4571 24.1143 15.8857C24.1143 11.3143 20.4571 7.65714 15.8857 7.65714Z" fill="#78909C"/>
</svg>
